<?xml version="1.0" standalone="no"?>
<!DOCTYPE svg PUBLIC "-//W3C//DTD SVG 20010904//EN"
 "http://www.w3.org/TR/2001/REC-SVG-20010904/DTD/svg10.dtd">
<svg version="1.0" xmlns="http://www.w3.org/2000/svg" width="1920" height="1080" viewBox="0 0 1920 1080" fill="none" xmlns="http://www.w3.org/2000/svg">

<g transform="translate(0.000000,1200.000000) scale(0.100000,-0.100000)"
fill="#000000" stroke="none">
<path d="M0 6000 l0 -6000 8000 0 8000 0 0 6000 0 6000 -8000 0 -8000 0 0
-6000z m2797 5610 c-3 -11 -1 -23 4 -26 5 -3 9 -10 9 -15 0 -6 -4 -8 -9 -5 -5
3 -11 -3 -14 -14 -3 -13 -14 -20 -30 -20 -32 0 -37 8 -25 40 10 24 11 24 18 5
7 -19 7 -19 14 3 4 12 11 22 16 22 5 0 7 7 4 15 -4 8 -1 15 6 15 7 0 10 -8 7
-20z m202 -359 c23 -6 46 -9 51 -6 6 3 10 1 10 -6 0 -7 10 -9 30 -5 17 3 30 2
30 -3 0 -12 73 -22 80 -11 3 5 11 5 20 0 12 -7 10 -11 -10 -19 l-25 -10 27 0
c17 -1 29 -8 33 -20 3 -10 20 -26 38 -35 25 -12 28 -16 12 -17 -16 0 -15 -2 6
-10 15 -6 29 -19 32 -29 3 -13 14 -20 30 -20 14 0 29 -4 32 -10 3 -5 1 -10 -4
-10 -6 0 -11 -7 -11 -15 0 -8 8 -15 18 -15 19 0 48 -50 29 -50 -8 0 -9 -3 -1
-8 6 -4 10 -20 10 -37 -1 -23 4 -31 20 -33 16 -2 20 -8 17 -23 -4 -13 0 -19
12 -19 9 0 19 -9 22 -21 4 -13 13 -19 27 -18 11 2 32 -1 46 -6 14 -5 32 -9 40
-9 8 -1 15 -10 15 -21 0 -29 13 -45 33 -38 14 5 15 3 5 -8 -18 -19 -16 -49 3
-49 9 0 14 -6 11 -13 -3 -9 11 -21 39 -33 48 -21 51 -26 29 -47 -8 -8 -12 -17
-9 -19 8 -9 54 4 54 15 0 6 2 8 5 5 3 -3 -4 -24 -15 -46 -12 -23 -19 -46 -15
-52 8 -13 -40 -60 -62 -60 -9 0 -13 -6 -9 -15 3 -9 0 -15 -9 -15 -8 0 -15 -4
-15 -10 0 -5 7 -10 16 -10 11 0 14 -5 10 -17 -4 -9 -1 -20 6 -25 10 -6 10 -8
1 -8 -22 0 -16 -58 7 -70 24 -13 26 -30 5 -30 -22 0 -20 -50 3 -51 15 0 15 -1
-2 -8 -18 -7 -48 -80 -42 -105 2 -6 1 -8 -1 -3 -8 12 -34 8 -31 -5 2 -7 -9
-29 -25 -49 -18 -24 -27 -48 -27 -71 0 -23 -6 -38 -15 -42 -8 -3 -20 -17 -25
-32 -6 -14 -19 -28 -30 -31 -10 -3 -20 -14 -22 -26 -2 -13 -13 -23 -30 -28
-39 -10 -64 -37 -49 -52 21 -21 13 -47 -16 -49 -16 -1 -37 -2 -48 -3 -11 -1
-19 -7 -17 -14 1 -7 -3 -19 -9 -27 -6 -8 -8 -14 -3 -15 5 -1 -2 -5 -16 -10
l-25 -9 25 4 c14 2 32 5 40 7 9 3 16 -4 18 -18 3 -18 -1 -23 -18 -23 -32 0
-19 -23 17 -31 35 -7 59 3 49 20 -4 6 -2 11 3 11 6 0 11 -7 11 -15 0 -9 9 -15
23 -15 34 1 87 -11 93 -21 3 -5 -3 -9 -13 -10 -10 0 -28 -13 -41 -30 l-24 -29
39 -2 c21 -1 48 -2 61 -2 12 0 22 -4 22 -8 0 -12 38 -10 45 2 12 19 24 10 22
-17 -2 -19 -9 -29 -22 -31 -41 -7 -51 -12 -36 -22 12 -7 12 -10 0 -22 -8 -8
-20 -13 -28 -10 -8 3 -18 -3 -23 -12 -5 -9 -16 -16 -24 -16 -8 0 -14 -6 -12
-14 2 -8 -1 -15 -7 -15 -5 -1 -10 5 -10 11 0 7 -8 14 -17 16 -10 2 -18 -3 -18
-10 0 -24 -21 -38 -41 -27 -14 7 -25 5 -42 -6 -13 -8 -27 -12 -30 -8 -4 3 -7
-1 -7 -10 0 -9 7 -17 15 -17 8 0 15 -5 15 -10 0 -6 -6 -10 -12 -9 -34 4 -50
-4 -70 -36 -13 -19 -30 -35 -38 -35 -9 0 -11 -3 -5 -8 6 -4 11 -17 12 -29 2
-18 -2 -23 -22 -23 -30 0 -36 -10 -26 -46 5 -18 14 -28 23 -26 19 3 33 -29 17
-39 -6 -4 -8 -12 -5 -18 10 -16 26 -14 26 4 0 23 17 18 23 -6 4 -15 11 -20 22
-15 9 3 23 6 31 6 8 0 19 11 24 25 7 18 16 24 32 22 19 -2 23 2 21 23 -3 23
-2 23 11 8 19 -25 24 -22 28 15 2 24 8 33 26 35 12 2 22 -2 22 -8 0 -6 4 -8
10 -5 5 3 18 1 29 -4 15 -8 20 -7 25 5 4 12 9 12 18 3 11 -9 7 -18 -19 -44
-34 -34 -36 -65 -6 -65 12 0 14 -8 10 -35 -9 -53 -45 -91 -92 -98 -22 -3 -41
-11 -43 -16 -2 -6 -8 -8 -13 -5 -5 3 -25 -8 -45 -25 -19 -17 -46 -31 -60 -31
-14 0 -22 -4 -19 -10 3 -6 -4 -10 -17 -10 -14 0 -33 -7 -44 -15 -23 -17 -51
-19 -56 -4 -2 6 -13 2 -27 -10 -28 -25 -51 -17 -52 18 -1 25 -1 25 -10 -6 -7
-23 -14 -30 -27 -27 -13 4 -22 -7 -35 -40 -10 -25 -16 -49 -13 -55 7 -10 -16
-17 -91 -27 -43 -5 -53 -10 -53 -25 0 -12 -7 -19 -20 -19 -35 0 -77 -28 -100
-65 -15 -24 -32 -38 -51 -42 -17 -3 -34 -13 -39 -23 -10 -19 -58 -30 -160 -36
-143 -8 -188 -15 -194 -31 -5 -12 -17 -14 -60 -9 -61 8 -106 0 -106 -19 0 -10
-7 -10 -37 0 -21 7 -42 10 -48 6 -5 -5 -34 -7 -63 -6 -29 0 -55 -3 -58 -7 -3
-4 -21 -8 -40 -8 -19 0 -34 -4 -34 -10 0 -5 -9 -10 -20 -10 -11 0 -20 5 -20
11 0 7 -12 9 -34 5 -21 -4 -51 -1 -78 9 -23 8 -50 15 -59 15 -9 0 -24 9 -34
20 -10 11 -13 20 -8 20 6 0 13 14 15 30 4 26 1 30 -19 30 -15 0 -23 -6 -23
-16 0 -13 -3 -14 -14 -5 -8 7 -32 9 -60 6 -56 -7 -70 -1 -56 26 9 16 7 19 -10
19 -11 0 -20 7 -20 15 0 8 -9 15 -19 15 -28 0 -52 11 -45 21 3 5 0 9 -6 9 -7
0 -34 10 -61 22 -47 22 -62 38 -36 38 26 0 -19 20 -47 20 -21 0 -27 4 -22 16
3 8 2 12 -4 9 -6 -3 -13 1 -17 11 -4 10 0 20 12 27 18 9 18 10 0 23 -10 8 -13
14 -7 14 7 0 12 7 12 15 0 8 4 15 9 15 5 0 11 6 14 14 4 10 0 12 -14 9 -21 -6
-41 28 -21 35 7 2 12 8 12 14 0 6 -6 5 -16 -3 -13 -10 -19 -8 -40 14 -30 32
-30 37 -2 37 20 0 19 2 -10 28 -18 16 -32 34 -32 40 0 7 -7 12 -16 12 -13 0
-13 3 4 18 23 20 39 62 23 62 -15 0 -13 21 5 45 13 18 14 17 8 -13 -5 -25 -3
-32 10 -32 9 0 16 5 16 10 0 19 19 10 26 -12 8 -28 22 -38 52 -38 29 0 28 18
-2 30 -31 12 -41 29 -22 36 21 8 20 26 -3 67 -21 37 -17 52 14 52 16 0 19 6
17 25 -2 14 -9 31 -14 38 -24 29 15 141 50 142 13 0 14 1 18 48 2 32 1 33 -16
17 -15 -13 -23 -14 -39 -5 -12 6 -22 16 -22 23 -1 7 -2 19 -3 27 -1 8 2 20 7
27 4 6 4 14 -2 17 -15 10 0 46 19 46 10 0 21 6 24 13 4 9 8 9 11 1 3 -7 14
-11 23 -9 9 1 11 0 4 -2 -19 -7 -6 -52 23 -82 l24 -25 11 28 c5 15 7 32 4 37
-3 6 -1 15 5 22 7 10 4 13 -12 14 -12 1 -23 7 -25 13 -2 5 -10 10 -17 10 -17
0 38 60 57 61 10 0 10 2 1 6 -7 2 -13 9 -13 15 0 15 -43 58 -58 58 -8 0 -12 9
-10 22 3 24 57 45 69 27 3 -6 24 -10 45 -9 59 4 74 1 74 -14 0 -7 -7 -19 -15
-26 -28 -23 -16 -39 43 -56 68 -20 101 -42 102 -69 1 -11 4 -14 7 -7 9 22 36
14 30 -9 -3 -13 -1 -19 6 -16 7 2 11 16 10 31 -1 16 4 29 12 33 8 3 15 15 15
27 0 12 14 32 30 46 17 14 30 29 30 35 0 15 39 87 59 108 9 9 21 22 26 29 7 7
8 41 4 92 -4 44 -5 84 -3 88 3 5 14 8 25 8 12 0 17 5 14 10 -4 6 -1 17 5 25
10 12 9 15 -6 15 -14 0 -15 3 -6 12 17 17 15 33 -3 18 -13 -11 -15 -8 -15 19
0 19 4 30 10 26 6 -3 10 1 10 9 0 9 -4 16 -9 16 -16 0 -19 24 -10 84 7 50 5
62 -9 73 -16 12 -16 14 1 27 9 7 17 21 17 30 0 10 5 26 10 37 7 11 7 19 1 19
-5 0 -12 -6 -15 -12 -3 -7 -2 1 1 17 3 17 11 33 17 37 8 6 8 8 -1 8 -12 0 -10
51 5 90 5 14 7 31 5 37 -3 7 2 16 11 19 9 3 16 14 16 24 0 11 5 22 10 25 6 3
10 15 10 26 0 11 4 18 9 15 5 -4 7 3 4 15 -5 16 -8 18 -15 7 -8 -10 -8 -10 -4
2 2 8 10 32 17 53 8 24 17 36 25 33 21 -8 27 13 11 37 -7 12 -12 28 -10 35 7
18 33 15 33 -5 0 -12 3 -14 10 -7 8 8 7 19 -1 38 -11 24 -10 29 10 49 22 22
22 22 37 3 13 -19 14 -19 14 7 0 17 7 30 18 34 9 4 28 17 42 30 16 15 32 21
45 17 16 -5 17 -4 8 6 -6 7 -9 20 -6 29 4 12 3 13 -5 2 -7 -10 -11 -10 -17 -1
-9 15 13 30 32 23 8 -3 20 3 28 13 12 17 14 18 20 2 6 -14 12 -15 33 -7 15 6
28 10 30 10 1 -1 8 -1 15 -1 8 0 8 3 -2 9 -12 7 -12 13 -3 24 7 7 9 17 5 20
-3 4 -1 7 5 7 7 0 12 7 12 16 0 10 -6 14 -14 11 -8 -3 -17 -3 -20 0 -3 4 11
12 31 19 34 12 40 11 56 -5 16 -15 26 -16 80 -9 34 5 72 6 85 3 12 -3 22 -1
22 4 0 5 -16 12 -35 15 -50 10 -54 26 -6 26 23 0 41 -4 41 -9 0 -5 19 -11 41
-15 31 -5 46 -3 59 9 19 17 60 20 60 5 0 -5 18 -10 40 -10 22 0 40 -4 40 -10
0 -5 9 -10 20 -10 11 0 20 4 20 10 0 5 19 15 43 21 23 7 46 16 52 21 5 5 12 1
16 -10 4 -10 25 -24 48 -31z m-899 -176 c0 -8 -4 -15 -10 -15 -5 0 -10 7 -10
15 0 8 5 15 10 15 6 0 10 -7 10 -15z m-66 -40 c-4 -8 -8 -15 -10 -15 -2 0 -4
7 -4 15 0 8 4 15 10 15 5 0 7 -7 4 -15z m-144 -385 c0 -5 -4 -10 -10 -10 -5 0
-10 5 -10 10 0 6 5 10 10 10 6 0 10 -4 10 -10z m7666 -59 c-4 -5 -13 -8 -22
-4 -11 4 -12 8 -3 20 14 16 36 2 25 -16z m-7713 -101 c3 -11 1 -18 -4 -14 -5
3 -9 12 -9 20 0 20 7 17 13 -6z m-27 -567 c-10 -10 -19 5 -10 18 6 11 8 11 12
0 2 -7 1 -15 -2 -18z m-26 -12 c0 -6 -4 -13 -10 -16 -5 -3 -10 1 -10 9 0 9 5
16 10 16 6 0 10 -4 10 -9z m1697 -157 c-3 -3 -12 -4 -19 -1 -8 3 -5 6 6 6 11
1 17 -2 13 -5z m220 -96 c-3 -8 -6 -5 -6 6 -1 11 2 17 5 13 3 -3 4 -12 1 -19z
m-63 -9 c-3 -5 -10 -7 -15 -3 -5 3 -7 10 -3 15 3 5 10 7 15 3 5 -3 7 -10 3
-15z m-2339 -28 c3 -5 1 -12 -4 -16 -6 -3 -8 -12 -4 -20 3 -8 1 -15 -5 -15
-11 0 -21 30 -15 48 5 14 19 16 28 3z m-258 -443 c-3 -8 -6 -5 -6 6 -1 11 2
17 5 13 3 -3 4 -12 1 -19z m-7 -30 c0 -10 3 -9 9 1 11 16 31 6 31 -16 0 -11
-6 -14 -24 -9 -21 5 -23 3 -18 -21 3 -18 1 -24 -7 -19 -6 4 -11 16 -11 27 0
14 -7 19 -30 19 -35 0 -40 17 -7 23 43 8 57 7 57 -5z m127 -69 c-2 -27 -7 -52
-11 -56 -3 -3 -6 -1 -6 5 0 7 -5 12 -10 12 -6 0 -20 9 -31 19 -17 16 -19 22
-8 39 7 11 18 18 24 15 7 -2 15 3 19 12 12 32 27 3 23 -46z m-167 11 c0 -5 -4
-10 -10 -10 -5 0 -10 5 -10 10 0 6 5 10 10 10 6 0 10 -4 10 -10z m160 -380 c0
-5 -4 -10 -10 -10 -5 0 -10 5 -10 10 0 6 5 10 10 10 6 0 10 -4 10 -10z m965
-450 c-3 -5 -15 -10 -26 -10 -10 0 -19 5 -19 10 0 6 12 10 26 10 14 0 23 -4
19 -10z m-425 -300 c0 -5 -4 -10 -10 -10 -5 0 -10 5 -10 10 0 6 5 10 10 10 6
0 10 -4 10 -10z m13130 -770 c0 -5 -4 -10 -10 -10 -5 0 -10 5 -10 10 0 6 5 10
10 10 6 0 10 -4 10 -10z m-3100 -1010 c0 -5 -4 -10 -10 -10 -5 0 -10 5 -10 10
0 6 5 10 10 10 6 0 10 -4 10 -10z m3425 -5690 c0 -31 -3 -35 -27 -38 -27 -3
-28 -1 -28 38 0 39 1 41 28 38 24 -3 27 -7 27 -38z m35 10 c0 -30 19 -43 21
-15 3 28 4 33 12 41 4 4 7 -9 7 -30 0 -40 -20 -57 -45 -36 -17 14 -21 70 -5
70 6 0 10 -13 10 -30z m110 22 c0 -4 -7 -18 -16 -30 -14 -20 -14 -22 0 -22 9
0 16 -4 16 -10 0 -5 -13 -10 -30 -10 -35 0 -36 2 -14 35 15 23 15 25 0 25 -9
0 -16 5 -16 10 0 6 14 10 30 10 17 0 30 -3 30 -8z m60 -4 c0 -6 -7 -20 -17
-30 -15 -17 -15 -18 0 -18 10 0 17 -4 17 -10 0 -5 -11 -10 -25 -10 -27 0 -33
18 -12 39 10 11 10 14 0 18 -22 8 -14 23 12 23 14 0 25 -5 25 -12z"/>
<path d="M2000 10946 c0 -9 5 -16 10 -16 6 0 10 4 10 9 0 6 -4 13 -10 16 -5 3
-10 -1 -10 -9z"/>
<path d="M1853 10225 c0 -22 2 -30 4 -17 2 12 2 30 0 40 -3 9 -5 -1 -4 -23z"/>
<path d="M1888 10023 c7 -3 16 -2 19 1 4 3 -2 6 -13 5 -11 0 -14 -3 -6 -6z"/>
<path d="M1840 9960 c0 -5 7 -10 16 -10 8 0 12 5 9 10 -3 6 -10 10 -16 10 -5
0 -9 -4 -9 -10z"/>
<path d="M3398 9683 c6 -2 18 -2 25 0 6 3 1 5 -13 5 -14 0 -19 -2 -12 -5z"/>
<path d="M1136 8941 c-4 -7 -5 -15 -2 -18 9 -9 19 4 14 18 -4 11 -6 11 -12 0z"/>
<path d="M2708 8403 c7 -3 16 -2 19 1 4 3 -2 6 -13 5 -11 0 -14 -3 -6 -6z"/>
<path d="M1660 8311 c0 -17 18 -21 24 -6 3 9 0 15 -9 15 -8 0 -15 -4 -15 -9z"/>
<path d="M15128 473 c7 -3 16 -2 19 1 4 3 -2 6 -13 5 -11 0 -14 -3 -6 -6z"/>
</g>
</svg>
